<svg width="400" height="400" viewBox="0 0 400 400" fill="none" xmlns="http://www.w3.org/2000/svg">
<path d="M104.78 134.62L70.45 161.46" stroke="#191919" stroke-width="12" stroke-miterlimit="10" stroke-linecap="round" stroke-linejoin="round"/>
<path d="M329.55 161.46L295.22 134.62" stroke="#191919" stroke-width="12" stroke-miterlimit="10" stroke-linecap="round" stroke-linejoin="round"/>
<path d="M104.78 189.24V59.22C104.78 51.92 110.7 46 118 46H282C289.3 46 295.22 51.92 295.22 59.22V189.24" stroke="#6A0BFF" stroke-width="12" stroke-miterlimit="10" stroke-linecap="round" stroke-linejoin="round"/>
<path d="M224.59 90.01H258.1" stroke="#6A0BFF" stroke-width="12" stroke-miterlimit="10" stroke-linecap="round" stroke-linejoin="round"/>
<path d="M141.11 122.53H258.1" stroke="#6A0BFF" stroke-width="12" stroke-miterlimit="10" stroke-linecap="round" stroke-linejoin="round"/>
<path d="M141.11 155.05H258.1" stroke="#6A0BFF" stroke-width="12" stroke-miterlimit="10" stroke-linecap="round" stroke-linejoin="round"/>
<path d="M141.11 187.56H258.1" stroke="#6A0BFF" stroke-width="12" stroke-miterlimit="10" stroke-linecap="round" stroke-linejoin="round"/>
<path d="M145.11 220.15L204.13 220.08" stroke="#6A0BFF" stroke-width="12" stroke-miterlimit="10" stroke-linecap="round" stroke-linejoin="round"/>
<path d="M329.72 161.68C332.16 163.69 333.72 166.74 333.72 170.15V335.02C333.72 341.08 328.8 346 322.74 346H77.26C71.2 346 66.28 341.08 66.28 335.02V170.15C66.28 167.04 67.57 164.24 69.64 162.24" stroke="#191919" stroke-width="12" stroke-miterlimit="10" stroke-linecap="round" stroke-linejoin="round"/>
<path d="M330.08 162.01L209.46 256.18C203.9 260.52 196.1 260.52 190.54 256.18L69.9199 162.01" stroke="#191919" stroke-width="12" stroke-miterlimit="10" stroke-linecap="round" stroke-linejoin="round"/>
</svg>
